<mxfile host="Electron" modified="2024-02-16T15:56:13.569Z" agent="Mozilla/5.0 (Macintosh; Intel Mac OS X 10_15_7) AppleWebKit/537.36 (KHTML, like Gecko) draw.io/23.0.2 Chrome/120.0.6099.109 Electron/28.1.0 Safari/537.36" etag="Wvl4lD1uXQi1nw6fddHQ" version="23.0.2" type="device">
  <diagram name="Page-1" id="3oQH_Op6J4Whzmt1GgBI">
    <mxGraphModel dx="2074" dy="1214" grid="1" gridSize="10" guides="1" tooltips="1" connect="1" arrows="1" fold="1" page="1" pageScale="1" pageWidth="827" pageHeight="1169" math="0" shadow="0">
      <root>
        <mxCell id="0" />
        <mxCell id="1" parent="0" />
        <mxCell id="qy5XUY6u6ocirC6zYNoU-18" style="edgeStyle=orthogonalEdgeStyle;rounded=0;orthogonalLoop=1;jettySize=auto;html=1;curved=1;endArrow=oval;endFill=1;strokeWidth=1;endSize=8;" edge="1" parent="1" source="qy5XUY6u6ocirC6zYNoU-5" target="qy5XUY6u6ocirC6zYNoU-17">
          <mxGeometry relative="1" as="geometry" />
        </mxCell>
        <mxCell id="qy5XUY6u6ocirC6zYNoU-29" style="edgeStyle=orthogonalEdgeStyle;rounded=0;orthogonalLoop=1;jettySize=auto;html=1;curved=1;endSize=10;endArrow=oval;endFill=1;" edge="1" parent="1" source="qy5XUY6u6ocirC6zYNoU-5" target="qy5XUY6u6ocirC6zYNoU-27">
          <mxGeometry relative="1" as="geometry" />
        </mxCell>
        <mxCell id="qy5XUY6u6ocirC6zYNoU-30" style="edgeStyle=orthogonalEdgeStyle;rounded=0;orthogonalLoop=1;jettySize=auto;html=1;exitX=0.5;exitY=1;exitDx=0;exitDy=0;entryX=0.5;entryY=0;entryDx=0;entryDy=0;curved=1;endSize=10;endArrow=oval;endFill=1;" edge="1" parent="1" source="qy5XUY6u6ocirC6zYNoU-5" target="qy5XUY6u6ocirC6zYNoU-26">
          <mxGeometry relative="1" as="geometry" />
        </mxCell>
        <mxCell id="qy5XUY6u6ocirC6zYNoU-31" style="edgeStyle=orthogonalEdgeStyle;rounded=0;orthogonalLoop=1;jettySize=auto;html=1;curved=1;endSize=10;endArrow=oval;endFill=1;" edge="1" parent="1" source="qy5XUY6u6ocirC6zYNoU-5" target="qy5XUY6u6ocirC6zYNoU-23">
          <mxGeometry relative="1" as="geometry" />
        </mxCell>
        <mxCell id="qy5XUY6u6ocirC6zYNoU-32" style="edgeStyle=orthogonalEdgeStyle;rounded=0;orthogonalLoop=1;jettySize=auto;html=1;curved=1;endSize=10;endArrow=oval;endFill=1;" edge="1" parent="1" source="qy5XUY6u6ocirC6zYNoU-5" target="qy5XUY6u6ocirC6zYNoU-22">
          <mxGeometry relative="1" as="geometry" />
        </mxCell>
        <mxCell id="qy5XUY6u6ocirC6zYNoU-33" style="edgeStyle=orthogonalEdgeStyle;rounded=0;orthogonalLoop=1;jettySize=auto;html=1;exitX=0;exitY=0.5;exitDx=0;exitDy=0;curved=1;endSize=10;endArrow=oval;endFill=1;" edge="1" parent="1" source="qy5XUY6u6ocirC6zYNoU-5" target="qy5XUY6u6ocirC6zYNoU-24">
          <mxGeometry relative="1" as="geometry" />
        </mxCell>
        <mxCell id="qy5XUY6u6ocirC6zYNoU-34" style="edgeStyle=orthogonalEdgeStyle;rounded=0;orthogonalLoop=1;jettySize=auto;html=1;exitX=0.5;exitY=0;exitDx=0;exitDy=0;curved=1;endSize=10;endArrow=oval;endFill=1;" edge="1" parent="1" source="qy5XUY6u6ocirC6zYNoU-5" target="qy5XUY6u6ocirC6zYNoU-25">
          <mxGeometry relative="1" as="geometry" />
        </mxCell>
        <mxCell id="qy5XUY6u6ocirC6zYNoU-35" style="edgeStyle=orthogonalEdgeStyle;rounded=0;orthogonalLoop=1;jettySize=auto;html=1;curved=1;endArrow=oval;endFill=1;endSize=10;" edge="1" parent="1" source="qy5XUY6u6ocirC6zYNoU-5" target="qy5XUY6u6ocirC6zYNoU-19">
          <mxGeometry relative="1" as="geometry" />
        </mxCell>
        <mxCell id="qy5XUY6u6ocirC6zYNoU-5" value="Protocol" style="shape=hexagon;perimeter=hexagonPerimeter2;fixedSize=1;rounded=1;size=10;fontFamily=Space Grotesk;strokeColor=default;strokeWidth=2;fontColor=#000000;fontSize=14;fillColor=none;" vertex="1" parent="1">
          <mxGeometry x="200" y="300" width="79" height="50" as="geometry" />
        </mxCell>
        <mxCell id="qy5XUY6u6ocirC6zYNoU-17" value="Routes" style="text;strokeColor=none;fillColor=none;align=center;verticalAlign=middle;rounded=0;fontFamily=Space Grotesk;fontStyle=0" vertex="1" parent="1">
          <mxGeometry x="330" y="240" width="60" height="30" as="geometry" />
        </mxCell>
        <mxCell id="qy5XUY6u6ocirC6zYNoU-19" value="Jobs" style="text;strokeColor=none;fillColor=none;align=center;verticalAlign=middle;rounded=0;fontFamily=Space Grotesk;fontStyle=0" vertex="1" parent="1">
          <mxGeometry x="160" y="420" width="60" height="30" as="geometry" />
        </mxCell>
        <mxCell id="qy5XUY6u6ocirC6zYNoU-22" value="Services" style="text;strokeColor=none;fillColor=none;align=center;verticalAlign=middle;rounded=0;fontFamily=Space Grotesk;fontStyle=0" vertex="1" parent="1">
          <mxGeometry x="40" y="310" width="70" height="30" as="geometry" />
        </mxCell>
        <mxCell id="qy5XUY6u6ocirC6zYNoU-23" value="Schema" style="text;strokeColor=none;fillColor=none;align=center;verticalAlign=middle;rounded=0;fontFamily=Space Grotesk;fontStyle=0" vertex="1" parent="1">
          <mxGeometry x="80" y="400" width="60" height="30" as="geometry" />
        </mxCell>
        <mxCell id="qy5XUY6u6ocirC6zYNoU-24" value="Config" style="text;strokeColor=none;fillColor=none;align=center;verticalAlign=middle;rounded=0;fontFamily=Space Grotesk;fontStyle=0" vertex="1" parent="1">
          <mxGeometry x="100" y="220" width="60" height="30" as="geometry" />
        </mxCell>
        <mxCell id="qy5XUY6u6ocirC6zYNoU-25" value="Seed" style="text;strokeColor=none;fillColor=none;align=center;verticalAlign=middle;rounded=0;fontFamily=Space Grotesk;fontStyle=0" vertex="1" parent="1">
          <mxGeometry x="209.5" y="200" width="60" height="30" as="geometry" />
        </mxCell>
        <mxCell id="qy5XUY6u6ocirC6zYNoU-26" value="Triggers&#xa;" style="text;strokeColor=none;fillColor=none;align=center;verticalAlign=middle;rounded=0;fontFamily=Space Grotesk;fontStyle=0" vertex="1" parent="1">
          <mxGeometry x="280" y="420" width="60" height="40" as="geometry" />
        </mxCell>
        <mxCell id="qy5XUY6u6ocirC6zYNoU-27" value="Design System&#xa;" style="text;strokeColor=none;fillColor=none;align=center;verticalAlign=middle;rounded=0;fontFamily=Space Grotesk;fontStyle=0" vertex="1" parent="1">
          <mxGeometry x="340" y="360" width="80" height="40" as="geometry" />
        </mxCell>
      </root>
    </mxGraphModel>
  </diagram>
</mxfile>
